<?xml version="1.0" encoding="UTF-8" standalone="no"?><!DOCTYPE svg PUBLIC "-//W3C//DTD SVG 1.1//EN" "http://www.w3.org/Graphics/SVG/1.1/DTD/svg11.dtd"><svg width="100%" height="100%" viewBox="0 0 13 10" version="1.1" xmlns="http://www.w3.org/2000/svg" xmlns:xlink="http://www.w3.org/1999/xlink" xml:space="preserve" style="fill-rule:evenodd;clip-rule:evenodd;stroke-linejoin:round;stroke-miterlimit:1.41421;"><path d="M5.891,7.874c-3.161,0 -5.701,-1.704 -5.701,-3.805c0,-2.102 2.54,-3.806 5.701,-3.806c3.161,0 5.723,1.704 5.723,3.806c0,2.101 -2.562,3.805 -5.723,3.805Zm0.228,-7.874c-3.38,0 -6.119,1.822 -6.119,4.069c0,2.247 2.739,4.068 6.119,4.068c3.379,0 6.119,-1.821 6.119,-4.068c0,-2.247 -2.74,-4.069 -6.119,-4.069Z" style="fill:#fff;fill-rule:nonzero;"/><path d="M6.138,5.968c-1.534,0 -2.756,-0.827 -2.756,-1.847c0,-1.021 1.222,-1.848 2.756,-1.848c1.535,0 2.615,0.827 2.615,1.848c0,1.02 -1.08,1.847 -2.615,1.847Zm0.111,-3.823c-1.641,0 -2.971,0.885 -2.971,1.976c0,1.091 1.33,1.975 2.971,1.975c1.641,0 2.971,-0.884 2.971,-1.975c0,-1.091 -1.33,-1.976 -2.971,-1.976Z" style="fill:#fff;fill-rule:nonzero;"/><path d="M2.098,5.15c1.046,-3.179 4.084,-4.06 4.084,-4.06c3.444,1.143 4.447,4.06 4.447,4.06c-1.126,3.18 -4.435,4.06 -4.435,4.06c-3.471,-1.077 -4.096,-4.06 -4.096,-4.06Zm-0.611,0c0,0 0.87,3.269 4.674,4.45c0,0 3.441,-0.965 4.676,-4.45c0,0 -0.915,-3.197 -4.69,-4.45c0,0 -3.514,0.966 -4.66,4.45Z" style="fill:#fff;fill-rule:nonzero;"/><path d="M4.559,4.935c0.471,-1.465 1.613,-1.87 1.613,-1.87c1.551,0.526 1.999,1.87 1.999,1.87c-0.507,1.464 -1.993,1.869 -1.993,1.869c-1.562,-0.496 -1.619,-1.869 -1.619,-1.869Zm-0.481,0c0,0 0.392,1.505 2.105,2.049c0,0 1.548,-0.445 2.104,-2.049c0,0 -0.412,-1.473 -2.111,-2.05c0,0 -1.581,0.445 -2.098,2.05Z" style="fill:#fff;fill-rule:nonzero;"/></svg>